<svg xmlns="http://www.w3.org/2000/svg" width="300" height="90.299" viewBox="0 0 300 90.299">
 <g transform="matrix(1.3333 0 0 -1.3333 -621.84 377.57)">
  <g>
   <path d="m686.84 275.85c-2.7564 3.5809-7.0493 5.635-11.779 5.635h-190.03l-17.194-64.723h194.94c8.1519 0 15.91 6.0464 18.043 14.07l8.4589 31.843c1.2552 4.7317 0.36645 9.5341-2.435 13.176"/>
   <path d="m662.77 216.76h-194.94l17.194 64.723h190.03c4.7301 0 9.023-2.0524 11.779-5.635 2.803-3.642 3.6918-8.4444 2.4366-13.174l-8.4605-31.844c-2.1328-8.0217-9.8893-14.07-18.043-14.07m-191.1 2.9477h191.1c6.8613 0 13.393 5.1078 15.195 11.879l8.4589 31.843c1.0174 3.8397 0.31502 7.7115-1.9239 10.624-2.1923 2.848-5.6334 4.4826-9.4425 4.4826h-187.76z" fill="#b5a36a"/>
   <path d="m546.83 272.25h-11.104l-12.286-46.25h11.103c3.9618 0 8.0635 3.245 9.1162 7.2052l8.4589 31.843c1.0527 3.9618-1.3276 7.202-5.2878 7.202m-2.2903-8.6196-7.7083-29.009c-0.2877-1.0785-1.3903-1.9528-2.4671-1.9528h-1.9496l8.7434 32.911h1.9496c1.0768 0 1.7149-0.87273 1.432-1.9496m130.53 8.6196h-11.103l-12.287-46.25h11.104c3.9618 0 8.0635 3.2434 9.1162 7.2068l8.4605 31.839c1.0511 3.965-1.3276 7.2036-5.291 7.2036m-2.2903-8.618-7.7067-29.012c-0.28448-1.0768-1.3919-1.9496-2.4671-1.9496h-1.9496l8.7417 32.911h1.9512c1.0784 0 1.7181-0.87434 1.4304-1.9496m-159.35 8.618-12.287-46.25h-7.2052l12.287 46.25zm-24.599-39.58h4.8796l-1.7712-6.67h-12.083l12.287 46.25h7.202zm63.894 0h6.0175l-1.7728-6.67h-13.218l12.284 46.25h13.221l-1.7712-6.6684h-6.0175l-3.4861-13.12h4.9583l-1.7712-6.67h-4.9583zm36.836 39.58-12.284-46.25h-7.2052l1.3565 19.79-5.2557-19.79h-7.2036l12.286 46.25h7.2036l-1.3565-19.79 5.2557 19.79zm-55.827 0-12.287-46.25h-7.2036l1.3597 19.79-5.2589-19.79h-7.2036l12.287 46.25h7.202l-1.3581-19.79 5.2589 19.79zm126.07-8.1519c1.3436 5.058-1.6651 9.1564-6.7215 9.1564-5.0548 0-10.241-4.0984-11.585-9.1564l-7.9558-29.946c-1.342-5.0532 1.6683-9.1516 6.7231-9.1516s10.24 4.0984 11.583 9.1516zm-15.301-30.48c-0.28609-1.0801-1.3903-1.9528-2.4687-1.9528-1.0752 0-1.7165 0.87273-1.4304 1.9528l8.2403 31.016c0.28609 1.0768 1.3902 1.9496 2.4671 1.9496s1.7181-0.87273 1.432-1.9496zm-11.725 39.636c-5.0564 0-10.243-4.0984-11.585-9.1564l-7.9558-29.946c-1.342-5.0532 1.6667-9.1516 6.7214-9.1516s10.241 4.0984 11.585 9.1516l7.9558 29.946c1.3436 5.058-1.6667 9.1564-6.7214 9.1564m-0.33913-8.6196-8.2403-31.016c-0.28769-1.0801-1.3919-1.9528-2.4671-1.9528-1.0785 0-1.7197 0.87273-1.4337 1.9528l8.2403 31.016c0.2877 1.0768 1.3903 1.9496 2.4687 1.9496 1.0768 0 1.7165-0.87273 1.432-1.9496m-10.146 7.6151-15.913-46.25h-9.4361c1.011 7.0831 2.3964 15.23 4.1193 24.221l-0.3986 0.11733c-1.3388-3.8558-4.1772-11.816-8.6791-24.338h-9.3702l8.7658 46.25h7.2599l-6.8259-31.772 0.4002-0.11412c2.451 8.1149 6.0368 18.842 10.661 31.886h7.824c-0.33269-1.6988-1.4095-6.7825-3.2064-15.13l-3.8847-17.763 0.4002-0.11733c3.4411 11.194 7.1522 22.3 11.032 33.011z" fill="#fff"/>
  </g>
 </g>
</svg>