<svg xmlns="http://www.w3.org/2000/svg" width="1024" height="134.12" viewBox="0 0 1024 134.12"><path d="M178.61,1V17.71c0,7.79-5.8,11.47-12.82,11.47s-12.92-3.68-12.92-11.47V1h5.91V17.59c0,4,2.34,6.46,7,6.46s6.91-2.45,6.91-6.46V1Z" transform="translate(0 -0.44)" fill="#003058"/><path d="M202,6.23H191.75V1H218V6.23H207.79v22.5h-5.9L202,6.23Z" transform="translate(0 -0.44)" fill="#003058"/><path d="M243.1,1,255,28.73h-6.46l-2.78-6.46H234.3l-2.78,6.46h-6.46L237,1Zm-7.24,16.93h8.36l-1.67-4c-.78-1.67-2.34-6.8-2.34-6.8H240s-1.68,5-2.34,6.8Z" transform="translate(0 -0.44)" fill="#003058"/><path d="M274.18,1V11.8h12.93V1H293V28.73h-5.9V17H274.18V28.73h-5.9V1Z" transform="translate(0 -0.44)" fill="#003058"/><path d="M337.35,6.23H327.1V1h26.29V6.23H343.25v22.5h-5.9V6.23Z" transform="translate(0 -0.44)" fill="#003058"/><path d="M372.66,16.93v6.79h15.71v5.13H366.76V1.11h20.83V6.34H372.66v6.13H385.8V17l-13.14-.11Z" transform="translate(0 -0.44)" fill="#003058"/><path d="M400.84,15.14c0-8,6.13-14.59,15.15-14.59a15.66,15.66,0,0,1,10.7,3.68L424.35,8.9a12.29,12.29,0,0,0-8.13-3.11c-5.8,0-9.25,4.23-9.25,9.35s3.45,8.92,9.47,8.92a12.75,12.75,0,0,0,8.8-3.79l2.34,4.34a15.59,15.59,0,0,1-11.48,4.68C405.63,29.29,400.84,22.72,400.84,15.14Z" transform="translate(0 -0.44)" fill="#003058"/><path d="M447.52,1V11.8h12.92V1h5.9V28.73h-5.9V17H447.52V28.73h-5.91V1Z" transform="translate(0 -0.44)" fill="#003058"/><path d="M529.06,1V17.71c0,7.79-5.79,11.47-12.81,11.47s-12.92-3.68-12.92-11.47V1h5.9V17.59c0,4,2.23,6.46,7,6.46s6.91-2.45,6.91-6.46V1Z" transform="translate(0 -0.44)" fill="#003058"/><path d="M565.82,1h5.91V28.73h-5.57L551,10.13h-.11s.33,4.23.33,6.35V28.73h-5.9V1h5.57l15.15,18.49h.11s-.34-4.35-.34-5.91V1Z" transform="translate(0 -0.44)" fill="#003058"/><path d="M594,1V28.73H588.1V1Z" transform="translate(0 -0.44)" fill="#003058"/><path d="M607.15,1h6.68l6.24,14.81c.56,1.34,1.56,5.13,1.56,5.13h.23s1.11-3.79,1.56-5.13L629.65,1h6.69l-11.7,27.73h-5.9Z" transform="translate(0 -0.44)" fill="#003058"/><path d="M653.72,16.93v6.79h15.7v5.13H647.81V1.11h20.83V6.34H653.72v6.13h13.14V17l-13.14-.11Z" transform="translate(0 -0.44)" fill="#003058"/><path d="M684.13,1h10.58c7.69,0,11.14,3.78,11.14,9a7.93,7.93,0,0,1-4.46,7.57v.12l6.8,11H701.5l-6.35-10h-5.23v10h-5.79V1Zm10.25,13.25c4,0,5.68-1.22,5.68-4.12,0-2.34-1.23-4-5.35-4h-4.57v8.24h4.24Z" transform="translate(0 -0.44)" fill="#003058"/><path d="M737.71,7.79a6,6,0,0,0-5.35-2.56c-2.56,0-4,1.45-4,3.56,0,1.67.89,2.68,2.9,3.35l3.56,1.11c5,1.56,6.91,4.12,6.91,7.69,0,5.45-4.23,8.57-10.14,8.57-6.24,0-8.91-2.89-10-5.12l3.78-3.12c1,2,2.45,3.56,6.35,3.56,2.9,0,4.46-1.44,4.46-3.56,0-1.78-1-2.78-3.12-3.45l-3.56-1.12c-4.91-1.56-6.69-4.34-6.69-7.8,0-4.34,2.79-8.46,9.69-8.46,4.9,0,7.58,2,9.14,4.12Z" transform="translate(0 -0.44)" fill="#003058"/><path d="M764.67,1V28.73h-5.91V1Z" transform="translate(0 -0.44)" fill="#003058"/><path d="M788.06,6.23H777.81V1H804.1V6.23H793.85v22.5H788l.11-22.5Z" transform="translate(0 -0.44)" fill="#003058"/><path d="M831.28,28.73h-5.9V17.48L814.24,1H821l5,7.13c.33.66,2.22,4,2.22,4h.12s1.89-3.46,2.34-4L835.63,1h6.79L831.17,17.48l.11,11.25Z" transform="translate(0 -0.44)" fill="#003058"/><path d="M86.15,50.46H5.94C-.3,68.28-.08,67.39,0,67.39H31.45v67.06H53.28V67.39h27Z" transform="translate(0 -0.44)" fill="#ba1c21"/><path d="M171.25,93.9V62.71A12.21,12.21,0,0,0,159,50.46H93.05l-5.9,16.93H94.5v67.06h21.83V106.27H138l15.15,28.18h21.38l-15.37-28.18h0A12.37,12.37,0,0,0,171.25,93.9Zm-21.16-1.45H116.22V67.39h33.87Z" transform="translate(0 -0.44)" fill="#ba1c21"/><path d="M251.24,134.45h22.28L247,58.7a12.25,12.25,0,0,0-11.58-8.24H209.35l-30.08,84h22.17l5.91-16.82h38ZM240.77,104.6h-29l14.48-38.66Z" transform="translate(0 -0.44)" fill="#ba1c21"/><polygon points="280.09 50.02 274.07 66.95 281.43 66.95 281.43 134.01 303.26 134.01 303.26 50.02 280.09 50.02" fill="#ba1c21"/><path d="M341.91,117.52V50.46H318.74l-5.9,16.93h7.35v67.06h58.26c0-.22-.67,1.89,5.57-16.93Z" transform="translate(0 -0.44)" fill="#ba1c21"/><path d="M468,96.91l-6.24-4.46L468,88a6.89,6.89,0,0,0,2.89-5.68V62.82a12.22,12.22,0,0,0-12.25-12.25H390.59l-5.9,16.93H392v67.06h66.62a12.22,12.22,0,0,0,12.25-12.25v-19.5A6.73,6.73,0,0,0,468,96.91ZM413.77,67.39h35.31V86H413.77Zm0,31.52h35.31v18.61H413.77Z" transform="translate(0 -0.44)" fill="#ba1c21"/><polygon points="508.34 117.08 508.34 50.02 485.06 50.02 479.16 66.95 486.51 66.95 486.51 134.01 544.77 134.01 550.23 117.08 508.34 117.08" fill="#ba1c21"/><path d="M625,134.45h22.28L620.74,58.7a12.25,12.25,0,0,0-11.58-8.24H583.09l-30.08,84h22.17l5.9-16.82h38ZM614.61,104.6h-29l14.48-38.66Z" transform="translate(0 -0.44)" fill="#ba1c21"/><polygon points="710.86 112.4 710.86 119.08 680.45 119.08 732.59 62.6 732.59 50.02 652.71 50.02 652.71 71.63 674.43 71.63 674.43 64.83 704.96 64.83 652.71 121.31 652.71 133.9 732.59 134.01 732.59 112.4 710.86 112.4" fill="#ba1c21"/><polygon points="767.45 85.55 767.45 66.95 815.91 66.95 821.81 50.02 744.17 50.02 738.27 66.95 745.62 66.95 745.62 134.01 817.36 134.01 817.36 117.08 767.45 117.08 767.45 98.47 809.56 98.47 809.56 85.55 767.45 85.55" fill="#ba1c21"/><path d="M906.92,93.9V62.71a12.21,12.21,0,0,0-12.25-12.25H828.72l-5.9,16.93h7.35v67.06H852V106.27h21.72l15,28.18h21.39l-15.48-28.3h0A12.21,12.21,0,0,0,906.92,93.9Zm-21.16-1.45H851.89V67.39h33.87Z" transform="translate(0 -0.44)" fill="#ba1c21"/><path d="M995.26,72.07V50.46H929.2A12.21,12.21,0,0,0,917,62.71V81.09a12.1,12.1,0,0,0,8.69,11.7l47.9,14.37v10.25H938.67v-4.68H917v21.61H983a12.22,12.22,0,0,0,12.25-12.26V104.71A12.11,12.11,0,0,0,986.57,93l-47.9-14.37V67.5h34.87v4.68h21.72Z" transform="translate(0 -0.44)" fill="#ba1c21"/><path d="M1008.85,127.1H1006v-1.34h7.36v1.34h-2.9v7.35h-1.67l.11-7.35Z" transform="translate(0 -0.44)" fill="#ba1c21"/><path d="M1022.66,134.45v-5.79l-2.89,4.79H1019l-2.9-4.68v5.68h-1.56v-8.69h1.34l3.45,5.79,3.34-5.79H1024v8.69Z" transform="translate(0 -0.44)" fill="#ba1c21"/></svg>